<?xml version="1.0" standalone="no"?>
<!DOCTYPE svg PUBLIC "-//W3C//DTD SVG 1.0//EN" "http://www.w3.org/TR/2001/REC-SVG-20010904/DTD/svg10.dtd">
<svg xmlns="http://www.w3.org/2000/svg" xmlns:xlink="http://www.w3.org/1999/xlink" id="body_1" width="51" height="38">

<g transform="matrix(1.5833334 0 0 1.5833334 6.4999995 -0)">
    <path d="M20.447 20.452L16.893002 20.452L16.893002 14.882999C 16.893002 13.554999 16.866001 11.846 15.041001 11.846C 13.188002 11.846 12.905002 13.290999 12.905002 14.785L12.905002 14.785L12.905002 20.452L9.351 20.452L9.351 9L12.764999 9L12.764999 10.561L12.810999 10.561C 13.287999 9.661 14.447999 8.7109995 16.181 8.7109995C 19.782 8.7109995 20.448 11.080999 20.448 14.165999L20.448 14.165999L20.448 20.452L20.447 20.452zM5.337 7.433C 4.193 7.433 3.274 6.507 3.274 5.368C 3.274 4.23 4.194 3.305 5.337 3.305C 6.4769998 3.305 7.401 4.23 7.401 5.368C 7.401 6.507 6.476 7.433 5.337 7.433zM7.119 20.452L3.555 20.452L3.555 9L7.119 9L7.119 20.452zM22.225 0L1.771 0C 0.792 0 0 0.774 0 1.729L0 1.729L0 22.271C 0 23.227 0.792 24 1.771 24L1.771 24L22.222 24C 23.2 24 24 23.227 24 22.271L24 22.271L24 1.729C 24 0.774 23.2 0 22.222 0L22.222 0L22.225 0z" stroke="none" fill="#F8FAFC" fill-rule="nonzero" />
</g>
</svg>